name new_emg_signals
nRows=60
nColumns=7
 
endheader
time	LGLTMED	LRF	LADDLONG	LBF	LTA	LGM
0.0	0.1030733786773919	0.0342675384468556	0.0715116844588892	0.1538752697124895	0.0173794504557981	0.0297699995030371
0.009999999999999787	0.0844148939260781	0.0118040422316085	0.0864746841731435	0.1658515822444473	0.0295332728816474	0.0151608073774936
0.019999999999999574	0.0657078289728667	0.0106534556263883	0.1014577525385085	0.1779625112256366	0.0417622305311435	0.0004801480619807
0.02999999999999936	0.0469618086539985	0.0330920592838628	0.1164525748147409	0.1902017726362079	0.0540608390973835	0.0142648513505453
0.03999999999999915	0.0281864791088894	0.0554988890158944	0.1314508409971921	0.2025629405793443	0.0664235728011558	0.0290670058551301
0.049999999999998934	0.009391495774727	0.0778610979451985	0.1464442577391116	0.2150394558517857	0.0788448719004759	0.0439190810304791
0.05999999999999872	0.0094134884328949	0.1001658886341333	0.1614245602108367	0.2276246346179064	0.0913191501952013	0.0588138015174586
0.06999999999999851	0.0282188347150195	0.1224005294967355	0.1763835238628682	0.2403116771493224	0.1038408025055011	0.0737438594560253
0.0799999999999983	0.0470149297250742	0.1445523709905059	0.1913129760610543	0.2530936765936547	0.1164042121045743	0.0887019228573235
0.08999999999999808	0.0657921966136362	0.1666088615495397	0.2062048075626313	0.2659636277377319	0.1290037580872905	0.1036806438897657
0.09999999999999787	0.0845411057541882	0.1885575632229519	0.2210509838028125	0.2789144357322021	0.141633822657321	0.1186726670605974
0.10999999999999766	0.1032521851254156	0.2103861669854889	0.2358435559624653	0.2919389247464806	0.1542887983164618	0.1336706372786187
0.11999999999999744	0.1219160303297052	0.2320825076910191	0.2505746717883554	0.3050298465257975	0.1669630949411444	0.1486672077871071
0.12999999999999723	0.1405233142304325	0.253634578643589	0.265236586138203	0.3181798888259926	0.1796511467324796	0.1636550479589783
0.13999999999999702	0.1590647961941989	0.2750305457639568	0.2798216712233742	0.3313816837069191	0.1923474190278746	0.1786268509478011
0.1499999999999968	0.1775313309264323	0.2962587613317494	0.2943224265228069	0.3446278156710403	0.2050464149637913	0.1935753411892473
0.1599999999999966	0.1959138768919942	0.3173077772843268	0.308731488343461	0.3579108296379725	0.2177426819807134	0.2084932817481935
0.16999999999999638	0.2142035043155016	0.3381663580547037	0.3230416390044868	0.3712232387476686	0.2304308181625477	0.2233734815069469
0.17999999999999616	0.2323914027594088	0.3588234929320967	0.3372458156250928	0.3845575319856514	0.2431054784033117	0.2382088021908837
0.18999999999999595	0.2504688882804209	0.3792684079316461	0.3513371184984002	0.3979061816242589	0.2557613803944026	0.2529921652287767
0.19999999999999574	0.2684274101669155	0.3994905771629684	0.3653088190361019	0.411261650475719	0.268393310426428	0.2677165584468605
0.20999999999999552	0.2862585572619046	0.4194797336910246	0.3791543672706722	0.424616398955527	0.2809961290002042	0.2823750425975428
0.2199999999999953	0.3039540638778371	0.4392258798856416	0.3928673989038285	0.4379628919578882	0.2935647762424967	0.2969607577253989
0.2299999999999951	0.3215058153120317	0.4587192972583383	0.4064417418913533	0.4512936055478098	0.3060942771226412	0.3114669293738742
0.239999999999994	0.3389058529732057	0.4779505557865505	0.4198714225555932	0.4646010334768549	0.3185797464663875	0.3258868746363287
0.24999999999999467	0.3561463791314387	0.4969105227263629	0.4331506712180082	0.4778776935310482	0.3310163937632681	0.3402140080546265
0.25999999999999446	0.3732197613053544	0.5155903709158894	0.4462739273453718	0.4911161337210669	0.3433995277635745	0.3544418473682528
0.26999999999999424	0.3901185363022176	0.5339815865718713	0.4592358442038615	0.504308938325794	0.3557245608605471	0.3685640191164887
0.27999999999999403	0.4068354139289399	0.5520759765821451	0.4720312930162287	0.5174487338020564	0.3679870132530884	0.3825742640958336
0.2899999999999938	0.4233632803942024	0.5698656752962439	0.4846553666180073	0.5305281945744856	0.3801825168836595	0.3964664426751749
0.2999999999999936	0.4396952014230776	0.587343150815793	0.4971033826094996	0.5435400487199799	0.392306819145977	0.4102345399710617
0.3099999999999934	0.4558244251062049	0.6045012107863416	0.5093708860011869	0.5564770835612578	0.4043557863569003	0.4238726708862005
0.3199999999999932	0.4717443845058061	0.6213330076922385	0.5214536513513989	0.5693321511837232	0.416325406987536	0.4373750850147619
0.3299999999999921	0.487448700040639	0.637832043656424	0.533347684396734	0.5820981738892921	0.4282117946489188	0.4507361714185554
0.33999999999999275	0.5029311816718224	0.6539921747463435	0.5450492231780434	0.5947681496006192	0.4400111908277316	0.4639504632783413
0.34999999999999254	0.5181858309112134	0.6698076147864559	0.5565547386672407	0.6073351572290986	0.4517199673669952	0.4770126424246861
0.3599999999999923	0.5332068426736836	0.6852729386761138	0.56786093490276	0.61979236201989	0.463334628686236	0.4899175437523616
0.3699999999999921	0.547988606994607	0.7003830852104824	0.5789647486431402	0.6321330208868026	0.4748518137349689	0.5026601595219763
0.379999999999991	0.5625257106329822	0.715133359400442	0.5898633485492714	0.644350487749075	0.4862682976729883	0.5152356435519697
0.3899999999999917	0.5768129385800904	0.7295194342865357	0.6005541339061367	0.6564382188806515	0.4975809932712665	0.5276393153034369
0.3999999999999915	0.5908452754923117	0.743537352241396	0.6110347328961029	0.6683897782809949	0.5087869520282506	0.5398666638599934
0.40999999999999126	0.6046179070656774	0.7571835257546119	0.6213030004372803	0.6801988430747379	0.5198833649986097	0.5519133518041877
0.41999999999999105	0.6181262213685267	0.7704547376945929	0.631357015602352	0.6918592089452466	0.5308675633332974	0.5637752189921964
0.42999999999999083	0.6313658101474018	0.7833481410423881	0.6411950786344282	0.7033647956056965	0.541737018530981	0.5754482862280801
0.4399999999999906	0.644332470120179	0.7958612580936475	0.6508157075769264	0.7147096523094456	0.5524893424009312	0.5869287588388699
0.4499999999999904	0.6570222042692456	0.8079919791265547	0.6602176345348816	0.7258879634001089	0.5631222867373676	0.5982130301508797
0.4599999999999902	0.6694312231465438	0.8197385605350885	0.6693998015851823	0.7368940538999992	0.573633742705615	0.6092976848667991
0.4699999999999891	0.6815559462011592	0.8310996224294612	0.6783613563530038	0.7477223951339362	0.5840217399416331	0.6201795023420819
0.47999999999998977	0.6933930031384492	0.8420741457090323	0.6871016472709363	0.7583676103834287	0.5942844453680188	0.6308554597581311
0.48999999999998956	0.7049392353182977	0.8526614686186141	0.6956202185362609	0.7688244805640893	0.6044201617310985	0.6413227351897751
0.49999999999998934	0.7161916971977753	0.8628612828065829	0.7039168047806044	0.7790879499170077	0.6144273258647007	0.6515787105643309
0.5099999999999891	0.7271476578216799	0.8726736289103973	0.7119913254650079	0.7891531317031704	0.6243045066865278	0.6616209745092732
0.5199999999999889	0.7378046023620454	0.8820988917004554	0.7198438790122358	0.7990153138887197	0.6340504029334489	0.6714473250848388
0.5299999999999887	0.7481602337057423	0.8911377948158584	0.7274747366875874	0.8086699648083634	0.643663840643683	0.681055772396746
0.5399999999999885	0.7582124740870848	0.8997913951258417	0.7348843362391144	0.8181127387936596	0.6531437703965565	0.6904445410825738
0.5499999999999883	0.7679594667607879	0.9080610767497288	0.7420732753085457	0.8273394817523054	0.6624892643236324	0.6996120726632185
0.5599999999999881	0.7773995777088402	0.915948544766489	0.749042304624915	0.8363462366834803	0.6716995129066926	0.7085570277489562
0.5699999999999878	0.786531397373672	0.9234558186427544	0.7557923209947348	0.8451292491136202	0.6807738215780137	0.7172782880872887
0.5799999999999876	0.7953537424081487	0.9305852254057596	0.7623243601056878	0.8536849724364985	0.6897116071379424	0.7257749584379223
0.5899999999999874	0.8038656574312149	0.9373393925850624	0.7686395891647994	0.8620100731407778	0.6985123940045986	0.7340463682581447
